<?xml version="1.0" encoding="iso-8859-1"?>
<!-- Generator: Adobe Illustrator 19.0.0, SVG Export Plug-In . SVG Version: 6.00 Build 0)  -->
<svg version="1.1" id="Capa_1" xmlns="http://www.w3.org/2000/svg" xmlns:xlink="http://www.w3.org/1999/xlink" x="0px" y="0px"
	 viewBox="0 0 490 490" style="enable-background:new 0 0 490 490;" xml:space="preserve">
<path d="M489.651,174.021c-0.004-4.04-2.689-7.538-6.277-9.264L250.611,1.89c-3.594-2.519-8.376-2.524-11.964,0.014L7.151,164.672
	C2.992,166.039-0.005,169.96,0,174.58l0.348,305.013c0.006,5.759,4.677,10.414,10.43,10.407l468.815-0.535
	c5.754-0.007,10.413-4.671,10.406-10.432L489.651,174.021z M185.079,336.446l119.865-0.137l146.781,132.348l-209.826,0.24
	l-203.302,0.232L185.079,336.446z M324.776,326.131l144.066-129.446l0.297,259.614L324.776,326.131z M244.653,23.153l217.08,151.893
	L305.461,315.468l-120.948,0.138L27.918,175.544L244.653,23.153z M165.224,326.314L21.159,456.807L20.862,197.2L165.224,326.314z"/>
<g>
</g>
<g>
</g>
<g>
</g>
<g>
</g>
<g>
</g>
<g>
</g>
<g>
</g>
<g>
</g>
<g>
</g>
<g>
</g>
<g>
</g>
<g>
</g>
<g>
</g>
<g>
</g>
<g>
</g>
</svg>
