<svg width="60" height="60" viewBox="0 0 60 60" fill="none" xmlns="http://www.w3.org/2000/svg">
<path d="M30.0002 4.22402C15.7871 4.22402 4.22412 15.787 4.22412 30C4.22412 44.213 15.7871 55.776 30.0002 55.776C44.2132 55.776 55.7762 44.213 55.7762 30C55.7762 15.787 44.2132 4.22402 30.0002 4.22402Z" fill="#FF4D30"/>
<path opacity="0.1" d="M7.22412 30C7.22412 16.2907 17.9826 5.04832 31.5002 4.26879C31.0037 4.24019 30.5038 4.22402 30.0002 4.22402C15.7871 4.22402 4.22412 15.787 4.22412 30C4.22412 44.213 15.7871 55.776 30.0002 55.776C30.5038 55.776 31.0037 55.7598 31.5002 55.7312C17.9826 54.9517 7.22412 43.7093 7.22412 30Z" fill="#231F20"/>
<path d="M57.2563 42.5304C57.2704 42.4999 57.2836 42.4684 57.2975 42.4378C57.3595 42.3025 57.4195 42.1659 57.4795 42.0295C57.5217 41.9337 57.5645 41.8382 57.6056 41.7418C57.6679 41.5963 57.7277 41.4496 57.7876 41.3029C57.8237 41.2143 57.8611 41.1262 57.8964 41.0372C57.9646 40.8653 58.0301 40.6921 58.0952 40.5184C58.1197 40.4534 58.1455 40.389 58.1693 40.3236C58.2574 40.084 58.3425 39.8429 58.4246 39.6006C58.4405 39.5539 58.4548 39.5064 58.4706 39.4596C58.5359 39.2639 58.5998 39.0677 58.6612 38.8703C58.6882 38.7832 58.7132 38.6952 58.7395 38.6079C58.787 38.4495 58.8346 38.2909 58.8796 38.1315C58.9075 38.0323 58.9336 37.9323 58.9605 37.8327C59.0009 37.6836 59.0412 37.5347 59.0793 37.3846C59.106 37.2789 59.1312 37.1729 59.157 37.0669C59.1922 36.9217 59.227 36.7763 59.2601 36.6304C59.2848 36.5207 59.3085 36.4106 59.332 36.3006C59.363 36.1567 59.3933 36.0128 59.422 35.868C59.4442 35.7561 59.4656 35.6438 59.4867 35.5313C59.5136 35.3871 59.5397 35.2426 59.5645 35.0979C59.584 34.9846 59.6029 34.8709 59.6213 34.7572C59.6445 34.6117 59.6665 34.4655 59.6878 34.3194C59.7041 34.2056 59.7204 34.0921 59.7356 33.9779C59.7552 33.8298 59.7734 33.6813 59.7908 33.5325C59.8043 33.4194 59.8177 33.3063 59.8298 33.1929C59.846 33.0407 59.8601 32.888 59.8739 32.735C59.884 32.6242 59.8946 32.5136 59.9037 32.4023C59.9164 32.2423 59.9266 32.0817 59.9368 31.9212C59.9435 31.8163 59.9511 31.712 59.9566 31.6069C59.966 31.4291 59.9725 31.2505 59.9788 31.0718C59.9818 30.9831 59.9866 30.8948 59.9889 30.8058C59.996 30.538 60 30.2697 60 30.0002C60 28.4494 59.8819 26.9257 59.6538 25.4377C57.4495 11.0528 44.9914 0 30 0C15.0086 0 2.55047 11.0528 0.346172 25.4374C0.118125 26.9255 0 28.4491 0 30C0 30.2693 0.00386719 30.5378 0.0111328 30.8055C0.0134766 30.8945 0.0181641 30.9829 0.0212109 31.0716C0.0276562 31.2502 0.0339844 31.4287 0.0433594 31.6066C0.0488672 31.7118 0.0567187 31.8162 0.0631641 31.9209C0.0733594 32.0815 0.0835547 32.2421 0.0963281 32.4021C0.105234 32.5133 0.115898 32.6239 0.126094 32.7348C0.139922 32.8877 0.153984 33.0404 0.170156 33.1927C0.182344 33.3061 0.195703 33.4192 0.20918 33.5323C0.226641 33.6811 0.244688 33.8296 0.264375 33.9777C0.279609 34.0918 0.295898 34.2054 0.312188 34.3192C0.333398 34.4654 0.355547 34.6114 0.37875 34.757C0.397148 34.8708 0.415898 34.9843 0.435469 35.0977C0.460195 35.2423 0.486445 35.3869 0.513281 35.531C0.534375 35.6434 0.55582 35.7559 0.577969 35.8678C0.606797 36.0124 0.637031 36.1566 0.668086 36.3004C0.691641 36.4104 0.715195 36.5205 0.740039 36.6301C0.773203 36.776 0.808125 36.9213 0.843164 37.0666C0.868828 37.1727 0.894141 37.2788 0.920859 37.3843C0.958945 37.5343 0.999375 37.6834 1.03957 37.8325C1.06652 37.9321 1.09266 38.032 1.12055 38.1313C1.16566 38.2908 1.21312 38.4493 1.26059 38.6077C1.28684 38.6951 1.3118 38.783 1.33887 38.87C1.40027 39.0675 1.46438 39.2637 1.52953 39.4594C1.54523 39.5063 1.55965 39.5537 1.57547 39.6004C1.65762 39.8427 1.7427 40.0837 1.83082 40.3234C1.85484 40.3888 1.88051 40.453 1.90488 40.5182C1.97016 40.6916 2.03555 40.8648 2.10375 41.037C2.13914 41.126 2.17641 41.2141 2.2125 41.3026C2.27238 41.4493 2.33227 41.5961 2.39449 41.7416C2.43563 41.838 2.4784 41.9334 2.52059 42.0293C2.58047 42.1657 2.64059 42.3021 2.70246 42.4376C2.71641 42.4683 2.72965 42.4997 2.74371 42.5302L2.76152 42.5638C3.20098 43.5128 3.68848 44.4353 4.22121 45.3277L4.23902 45.3613C4.26352 45.4021 4.28871 45.4424 4.3132 45.4832C4.33957 45.5268 4.36605 45.57 4.39254 45.6135C4.49977 45.7888 4.6084 45.9633 4.71914 46.1363C4.72488 46.1452 4.73039 46.1541 4.73613 46.163C4.85203 46.3434 4.97039 46.5223 5.09016 46.7002C5.11852 46.7423 5.14699 46.7844 5.17547 46.8263C5.295 47.002 5.4157 47.177 5.53875 47.3501C5.54016 47.3521 5.54145 47.3539 5.54285 47.3559C5.66754 47.5311 5.79469 47.7043 5.92289 47.8767C5.95312 47.9173 5.98359 47.9577 6.01383 47.9982C6.14309 48.17 6.27363 48.341 6.40641 48.5099C6.40676 48.5102 6.40723 48.5108 6.40746 48.5112C6.53988 48.6795 6.67441 48.8457 6.81023 49.0111C6.84211 49.0499 6.87387 49.0884 6.90598 49.1271C7.04285 49.2921 7.18078 49.4561 7.32129 49.6182C7.32668 49.6245 7.33219 49.6307 7.33758 49.6368C7.4734 49.7932 7.61098 49.9479 7.74973 50.1014C7.78312 50.1382 7.81652 50.175 7.84992 50.2118C7.99418 50.3696 8.13961 50.5264 8.28715 50.6813C8.29734 50.6919 8.30777 50.7025 8.31797 50.7132C8.45707 50.8588 8.59793 51.0027 8.73996 51.1455C8.77465 51.1803 8.8091 51.215 8.84402 51.2497C8.99508 51.4001 9.14742 51.5495 9.30187 51.6967C9.31687 51.711 9.33211 51.7253 9.34723 51.7395C9.48961 51.8748 9.63352 52.0086 9.77883 52.1412C9.81445 52.1739 9.85031 52.2067 9.88617 52.2391C10.044 52.3821 10.203 52.5237 10.3637 52.663C10.3832 52.6799 10.403 52.6964 10.4223 52.7133C10.5686 52.8394 10.7161 52.9639 10.8647 53.0873C10.9011 53.1176 10.9375 53.148 10.9741 53.178C11.1384 53.3132 11.304 53.447 11.4713 53.5786C11.4946 53.5971 11.5182 53.615 11.5417 53.6333C11.6917 53.7507 11.8431 53.8666 11.9953 53.9814C12.0323 54.0093 12.0693 54.0371 12.1065 54.0649C12.2771 54.1922 12.4489 54.3178 12.6224 54.4414C12.6492 54.4607 12.6764 54.4794 12.7032 54.4983C12.8576 54.6076 13.0129 54.7152 13.1693 54.8216C13.2066 54.8469 13.2436 54.8725 13.2811 54.8977C13.4576 55.0166 13.6355 55.134 13.8145 55.2491C13.8452 55.2688 13.8764 55.2882 13.9071 55.3079C14.065 55.4086 14.224 55.5079 14.3838 55.6057C14.4216 55.6289 14.4589 55.652 14.4967 55.675C14.6788 55.7854 14.8623 55.894 15.0469 56.0005C15.0809 56.0201 15.115 56.0393 15.1492 56.0586C15.3112 56.1514 15.4745 56.2426 15.6386 56.3327C15.6759 56.3532 15.7132 56.374 15.7507 56.3943C15.9383 56.4959 16.1269 56.5957 16.3168 56.6933C16.3541 56.7125 16.3916 56.7313 16.429 56.7502C16.5952 56.8349 16.7625 56.918 16.9304 56.9998C16.9676 57.0178 17.0045 57.036 17.0419 57.054C17.2345 57.1466 17.4284 57.2372 17.6232 57.3259C17.6633 57.3442 17.7037 57.3619 17.7439 57.38C17.915 57.4569 18.087 57.5323 18.2598 57.606C18.2957 57.6213 18.3314 57.6369 18.3674 57.6523C18.5648 57.7357 18.7635 57.8169 18.9632 57.896C19.0062 57.9132 19.0495 57.9299 19.0927 57.9469C19.2683 58.0157 19.4447 58.0829 19.622 58.1484C19.6568 58.1613 19.6912 58.1746 19.7261 58.1873C19.9282 58.2612 20.1314 58.3328 20.3357 58.4024C20.3811 58.4177 20.4267 58.4329 20.4723 58.4483C20.6535 58.5093 20.8354 58.5684 21.018 58.6259C21.0506 58.6362 21.083 58.6467 21.1158 58.6569C21.3223 58.7209 21.5299 58.7827 21.7384 58.8425C21.7866 58.8562 21.8348 58.8698 21.8829 58.8833C22.0693 58.9357 22.256 58.9867 22.4439 59.0354C22.4742 59.0434 22.5046 59.0517 22.5349 59.0596C22.7456 59.1136 22.9573 59.1653 23.1697 59.2148C23.22 59.2266 23.2703 59.2379 23.3205 59.2494C23.5131 59.2934 23.7062 59.3358 23.9 59.376C23.927 59.3816 23.9539 59.3876 23.9809 59.3932C24.1957 59.4371 24.4117 59.4783 24.6281 59.5175C24.6799 59.5269 24.7318 59.5361 24.7838 59.5452C24.9836 59.5805 25.1841 59.614 25.3854 59.6453C25.4075 59.6487 25.4297 59.6525 25.4522 59.6559C25.6707 59.6893 25.8904 59.7196 26.1107 59.7483C26.1645 59.7553 26.2182 59.762 26.2721 59.7687C26.4802 59.7945 26.6885 59.8189 26.8977 59.8404C26.9142 59.8423 26.9305 59.8441 26.947 59.8459C27.1696 59.8685 27.3928 59.8877 27.6166 59.9055C27.6718 59.9099 27.727 59.914 27.782 59.9181C27.9993 59.9341 28.2171 59.9483 28.4358 59.9597C28.445 59.96 28.4543 59.9609 28.4637 59.9612C28.6897 59.9727 28.917 59.9808 29.1443 59.9871C29.2002 59.9886 29.2562 59.9902 29.3121 59.9914C29.5407 59.9965 29.77 60 29.9998 60C30.2297 60 30.4589 59.9965 30.6875 59.9914C30.7434 59.9902 30.7995 59.9888 30.8554 59.9871C31.0827 59.9807 31.3098 59.9726 31.536 59.9612C31.5454 59.9609 31.5546 59.96 31.5639 59.9597C31.7824 59.9483 32.0003 59.9341 32.2177 59.9181C32.2729 59.9142 32.328 59.9099 32.383 59.9055C32.6068 59.8879 32.8302 59.8685 33.0526 59.8459C33.069 59.8443 33.0853 59.8423 33.102 59.8404C33.3111 59.8188 33.5195 59.7945 33.7275 59.7687C33.7814 59.762 33.8352 59.7552 33.889 59.7483C34.1092 59.7196 34.3288 59.6893 34.5475 59.6559C34.5698 59.6525 34.5921 59.6487 34.6143 59.6453C34.8157 59.6141 35.0161 59.5805 35.2159 59.5452C35.2678 59.5361 35.3197 59.5269 35.3715 59.5175C35.588 59.4783 35.8039 59.4371 36.0187 59.3932C36.0457 59.3876 36.0727 59.3816 36.0996 59.376C36.2934 59.3358 36.4866 59.2934 36.6791 59.2494C36.7295 59.2379 36.7796 59.2266 36.8299 59.2148C37.0424 59.1652 37.2541 59.1136 37.4647 59.0596C37.4951 59.0517 37.5254 59.0434 37.5558 59.0354C37.7436 58.9867 37.9304 58.9358 38.1168 58.8833C38.1649 58.8697 38.2132 58.8564 38.2613 58.8425C38.4697 58.7827 38.6771 58.721 38.8836 58.6569C38.9163 58.6467 38.9487 58.6362 38.9814 58.6259C39.1639 58.5684 39.3459 58.5091 39.5271 58.4483C39.5728 58.4331 39.6183 58.418 39.6637 58.4024C39.8679 58.3328 40.0712 58.2612 40.2734 58.1873C40.3082 58.1746 40.3426 58.1613 40.3774 58.1484C40.5546 58.0829 40.731 58.0157 40.9068 57.9469C40.9499 57.9299 40.9932 57.9132 41.0362 57.896C41.2359 57.8168 41.4347 57.7357 41.632 57.6523C41.668 57.637 41.7038 57.6214 41.7396 57.606C41.9125 57.5323 42.0845 57.4568 42.2555 57.38C42.2957 57.3619 42.3361 57.3442 42.3762 57.3259C42.5711 57.2372 42.7649 57.1467 42.9575 57.054C42.9947 57.0362 43.0315 57.0179 43.0686 56.9998C43.2368 56.9181 43.4041 56.8348 43.5705 56.7502C43.6077 56.7312 43.6452 56.7124 43.6823 56.6933C43.8724 56.5956 44.061 56.4959 44.2486 56.3943C44.2862 56.374 44.3234 56.3534 44.3607 56.3327C44.5248 56.2429 44.688 56.1516 44.8501 56.0586C44.8843 56.0392 44.9183 56.0201 44.9524 56.0005C45.137 55.894 45.3204 55.7852 45.5026 55.675C45.5404 55.652 45.5777 55.6289 45.6155 55.6057C45.7755 55.5079 45.9343 55.4086 46.0922 55.3079C46.123 55.2882 46.1542 55.2688 46.1848 55.2491C46.3638 55.1339 46.5416 55.0167 46.7182 54.8977C46.7556 54.8725 46.7927 54.8469 46.83 54.8216C46.9864 54.7152 47.1418 54.6074 47.2961 54.4983C47.3229 54.4792 47.3501 54.4605 47.3769 54.4414C47.5504 54.3179 47.7221 54.1922 47.8928 54.0649C47.9299 54.0371 47.9668 54.0093 48.004 53.9814C48.1562 53.8668 48.3075 53.7507 48.4576 53.6333C48.4811 53.6149 48.5047 53.5971 48.528 53.5786C48.6953 53.4469 48.8609 53.3132 49.0252 53.178C49.0618 53.148 49.0982 53.1177 49.1346 53.0873C49.2833 52.9639 49.4309 52.8394 49.577 52.7133C49.5963 52.6964 49.6161 52.6799 49.6356 52.663C49.7963 52.5236 49.9553 52.3821 50.1131 52.2391C50.149 52.2067 50.1848 52.1739 50.2205 52.1412C50.3657 52.0085 50.5097 51.8748 50.6521 51.7395C50.6671 51.7253 50.6824 51.711 50.6974 51.6967C50.8519 51.5494 51.0042 51.4002 51.1553 51.2497C51.1901 51.215 51.2246 51.1803 51.2593 51.1455C51.4014 51.0027 51.5422 50.859 51.6813 50.7132C51.6915 50.7026 51.702 50.692 51.7121 50.6813C51.8597 50.5266 52.005 50.3696 52.1494 50.2118C52.1828 50.1751 52.2162 50.1383 52.2496 50.1014C52.3883 49.9479 52.526 49.7933 52.6617 49.6368C52.6671 49.6307 52.6727 49.6245 52.678 49.6182C52.8184 49.4563 52.9564 49.2921 53.0933 49.1271C53.1254 49.0886 53.1572 49.0499 53.1891 49.0111C53.3249 48.8457 53.4594 48.6795 53.5918 48.5112C53.5921 48.5108 53.5925 48.5102 53.5929 48.5099C53.7255 48.341 53.8561 48.17 53.9855 47.9982C54.0157 47.9577 54.0462 47.9173 54.0764 47.8767C54.2046 47.7043 54.3318 47.531 54.4564 47.3559C54.4577 47.3539 54.4591 47.3521 54.4605 47.3501C54.5836 47.177 54.7043 47.002 54.8238 46.8263C54.8524 46.7844 54.8809 46.7423 54.9091 46.7002C55.0289 46.5224 55.1471 46.3436 55.2632 46.163C55.2689 46.1541 55.2744 46.1452 55.2802 46.1363C55.3909 45.9633 55.4995 45.7888 55.6068 45.6135C55.6332 45.57 55.6597 45.5268 55.6861 45.4832C55.7107 45.4425 55.7359 45.4022 55.7603 45.3613L55.7781 45.3277C56.3108 44.435 56.7983 43.5128 57.2378 42.5638L57.2563 42.5304ZM30 54.863C22.0743 54.863 15.0027 51.1351 10.4468 45.3409C7.12219 41.1124 5.13703 35.7838 5.13703 30.0001C5.13703 24.2164 7.12207 18.8877 10.4468 14.6593C15.0027 8.86488 22.0743 5.13703 30 5.13703C37.9257 5.13703 44.9973 8.86488 49.5532 14.6592C52.8778 18.8877 54.863 24.2163 54.863 30C54.863 35.7837 52.8779 41.1124 49.5532 45.3408C44.9973 51.1351 37.9257 54.863 30 54.863Z" fill="#90C8EC"/>
<g opacity="0.1">
<path opacity="0.1" d="M30.5508 59.961C30.5415 59.9606 30.5322 59.9598 30.523 59.9595C30.3045 59.9481 30.0866 59.9339 29.8692 59.9179C29.8139 59.914 29.7588 59.9096 29.7038 59.9053C29.4799 59.8876 29.2564 59.8683 29.0341 59.8457C29.0176 59.844 29.0013 59.842 28.9847 59.8402C28.7755 59.8186 28.5672 59.7942 28.3593 59.7684C28.3052 59.7618 28.2516 59.755 28.1978 59.748C27.9776 59.7193 27.7579 59.6891 27.5392 59.6557C27.5169 59.6523 27.4947 59.6484 27.4724 59.645C27.2712 59.6139 27.0707 59.5802 26.8707 59.545C26.8189 59.5358 26.767 59.5267 26.7152 59.5173C26.4988 59.478 26.2828 59.4369 26.068 59.393C26.0411 59.3873 26.014 59.3814 25.987 59.3757C25.7932 59.3355 25.6001 59.2931 25.4075 59.2492C25.3573 59.2377 25.307 59.2263 25.2567 59.2146C25.0443 59.1649 24.8325 59.1134 24.6219 59.0593C24.5917 59.0515 24.5612 59.0432 24.531 59.0352C24.3432 58.9864 24.1562 58.9356 23.97 58.8831C23.9218 58.8695 23.8734 58.8561 23.8255 58.8423C23.6169 58.7824 23.4094 58.7208 23.2031 58.6567C23.1704 58.6465 23.1379 58.6359 23.1053 58.6256C22.9227 58.5682 22.7408 58.5089 22.5597 58.4481C22.5139 58.4329 22.4684 58.4177 22.423 58.4021C22.2188 58.3325 22.0154 58.2609 21.8134 58.1871C21.7785 58.1743 21.7441 58.1612 21.7093 58.1482C21.5322 58.0827 21.3555 58.0154 21.18 57.9466C21.1366 57.9296 21.0934 57.913 21.0504 57.8958C20.8507 57.8166 20.6521 57.7355 20.4546 57.652C20.4188 57.6368 20.383 57.6212 20.3472 57.6057C20.1743 57.532 20.0023 57.4566 19.8313 57.3798C19.791 57.3616 19.7507 57.3439 19.7105 57.3257C19.5156 57.237 19.3218 57.1465 19.1292 57.0538C19.092 57.0357 19.055 57.0176 19.0178 56.9995C18.8497 56.9177 18.6827 56.8345 18.5162 56.7499C18.4789 56.7308 18.4413 56.7122 18.4042 56.6931C18.2142 56.5954 18.0257 56.4956 17.838 56.394C17.8004 56.3738 17.7632 56.3531 17.7259 56.3325C17.5617 56.2426 17.3986 56.1513 17.2364 56.0584C17.2022 56.0389 17.1681 56.0198 17.1342 56.0003C16.9495 55.8937 16.7661 55.785 16.584 55.6747C16.5462 55.6518 16.5088 55.6287 16.4711 55.6055C16.3111 55.5076 16.1523 55.4084 15.9945 55.3077C15.9636 55.288 15.9325 55.2686 15.9018 55.2489C15.7227 55.1337 15.5449 55.0165 15.3683 54.8974C15.3311 54.8722 15.294 54.8467 15.2565 54.8214C15.1001 54.715 14.9447 54.6071 14.7906 54.498C14.7636 54.4789 14.7366 54.4603 14.7096 54.4412C14.5363 54.3177 14.3645 54.192 14.1938 54.0647C14.1566 54.0369 14.1197 54.009 14.0827 53.9811C13.9303 53.8665 13.779 53.7505 13.6289 53.6331C13.6055 53.6147 13.5819 53.5969 13.5586 53.5784C13.3913 53.4466 13.2255 53.3129 13.0613 53.1778C13.0247 53.1478 12.9884 53.1175 12.9519 53.0871C12.8031 52.9637 12.6557 52.8391 12.5093 52.713C12.49 52.6962 12.4703 52.6796 12.4508 52.6628C12.29 52.5233 12.131 52.3819 11.9733 52.2389C11.9374 52.2064 11.9016 52.1736 11.8658 52.1409C11.7207 52.0083 11.5767 51.8746 11.4343 51.7392C11.4192 51.725 11.404 51.7107 11.3889 51.6964C11.2344 51.5491 11.0821 51.4 10.931 51.2495C10.8962 51.2148 10.8618 51.1801 10.8271 51.1453C10.685 51.0025 10.5442 50.8588 10.4051 50.713C10.3948 50.7023 10.3843 50.6918 10.3741 50.681C10.2266 50.5263 10.0814 50.3694 9.93703 50.2116C9.90352 50.1749 9.87012 50.1381 9.83684 50.1012C9.69809 49.9477 9.56027 49.7931 9.42457 49.6365C9.41918 49.6304 9.41379 49.6242 9.40828 49.618C9.26801 49.4561 9.12984 49.2919 8.99297 49.1269C8.96086 49.0883 8.9291 49.0496 8.89735 49.0109C8.76152 48.8455 8.62699 48.6792 8.49457 48.5109C8.49422 48.5106 8.49387 48.51 8.49352 48.5096C8.36063 48.3408 8.2302 48.1699 8.10094 47.998C8.07059 47.9575 8.04012 47.917 8.00988 47.8765C7.8818 47.7041 7.75465 47.5308 7.62996 47.3557C7.62856 47.3537 7.62727 47.3518 7.62574 47.3498C7.5027 47.1768 7.38199 47.0018 7.26246 46.826C7.23387 46.7842 7.20527 46.7421 7.17715 46.6999C7.05738 46.5221 6.93926 46.3433 6.82324 46.1627C6.81738 46.1538 6.81199 46.1449 6.80625 46.136C6.69551 45.963 6.58688 45.7886 6.47953 45.6132C6.45305 45.5698 6.42656 45.5265 6.40031 45.4829C6.3757 45.4423 6.35039 45.402 6.32602 45.3611L6.30832 45.3274C5.77559 44.4348 5.28797 43.5125 4.84852 42.5636L4.8307 42.5299C4.81676 42.4995 4.80352 42.4679 4.78945 42.4373C4.72746 42.302 4.66746 42.1655 4.60746 42.0291C4.56551 41.9332 4.52274 41.8377 4.48137 41.7414C4.41914 41.5958 4.35938 41.4491 4.29938 41.3023C4.26328 41.2137 4.2259 41.1257 4.19063 41.0366C4.12242 40.8647 4.05691 40.6915 3.99176 40.5178C3.96727 40.4528 3.94148 40.3884 3.91758 40.323C3.82957 40.0834 3.74438 39.8423 3.66234 39.6C3.64652 39.5534 3.63211 39.5058 3.61641 39.459C3.55113 39.2633 3.48703 39.0671 3.42574 38.8697C3.39879 38.7825 3.37383 38.6946 3.34746 38.6073C3.3 38.4489 3.25242 38.2903 3.20742 38.1309C3.17953 38.0317 3.15328 37.9317 3.12645 37.8321C3.08602 37.683 3.04582 37.5341 3.00762 37.384C2.9809 37.2783 2.9557 37.1723 2.92992 37.0663C2.89465 36.9211 2.85984 36.7757 2.8268 36.6298C2.80219 36.5201 2.7784 36.41 2.75496 36.3C2.72402 36.1561 2.69367 36.0122 2.66496 35.8675C2.6427 35.7555 2.62125 35.6432 2.60027 35.5307C2.57344 35.3865 2.5473 35.242 2.52246 35.0973C2.50289 34.984 2.48402 34.8703 2.46586 34.7566C2.44254 34.6111 2.42063 34.465 2.3993 34.3188C2.38289 34.205 2.3666 34.0915 2.35148 33.9773C2.3318 33.8292 2.31375 33.6807 2.29629 33.5319C2.2827 33.4188 2.26934 33.3057 2.25727 33.1923C2.24098 33.0401 2.22703 32.8874 2.2132 32.7345C2.20301 32.6236 2.19234 32.513 2.18332 32.4018C2.17055 32.2417 2.16047 32.0811 2.15027 31.9206C2.14348 31.8157 2.13598 31.7114 2.13035 31.6063C2.12098 31.4285 2.11453 31.2499 2.10832 31.0712C2.10516 30.9825 2.10059 30.8943 2.09824 30.8052C2.09133 30.5378 2.08734 30.2694 2.08734 30C2.08734 28.4491 2.2057 26.9255 2.43363 25.4374C4.58613 11.3882 16.521 0.519141 31.0434 0.0198047C30.697 0.00808594 30.3495 0 30 0C15.0086 0 2.55047 11.0528 0.346172 25.4374C0.118125 26.9255 0 28.4491 0 30C0 30.2693 0.00386719 30.5378 0.0111328 30.8055C0.0134766 30.8945 0.0181641 30.9829 0.0212109 31.0716C0.0276563 31.2502 0.0339844 31.4287 0.0433594 31.6066C0.0488672 31.7118 0.0567188 31.8162 0.0631641 31.9209C0.0733594 32.0815 0.0835547 32.2421 0.0963281 32.4021C0.105234 32.5133 0.115898 32.6239 0.126094 32.7348C0.139922 32.8877 0.153984 33.0404 0.170156 33.1927C0.182344 33.3061 0.195703 33.4192 0.20918 33.5323C0.226641 33.6811 0.244688 33.8296 0.264375 33.9777C0.279609 34.0918 0.295898 34.2054 0.312188 34.3192C0.333398 34.4654 0.355547 34.6114 0.37875 34.757C0.397149 34.8708 0.415899 34.9843 0.435469 35.0977C0.460195 35.2423 0.486445 35.3869 0.513281 35.531C0.534375 35.6434 0.55582 35.7559 0.577969 35.8678C0.606797 36.0124 0.637031 36.1566 0.668086 36.3004C0.691641 36.4104 0.715195 36.5205 0.740039 36.6301C0.773203 36.776 0.808125 36.9213 0.843164 37.0666C0.868828 37.1727 0.894141 37.2788 0.920859 37.3843C0.958945 37.5343 0.999375 37.6834 1.03957 37.8325C1.06652 37.9321 1.09266 38.032 1.12055 38.1313C1.16566 38.2908 1.21313 38.4493 1.26059 38.6077C1.28684 38.6951 1.3118 38.783 1.33887 38.87C1.40027 39.0675 1.46438 39.2637 1.52953 39.4594C1.54523 39.5063 1.55965 39.5537 1.57547 39.6004C1.65762 39.8427 1.7427 40.0837 1.83082 40.3234C1.85484 40.3888 1.88051 40.453 1.90488 40.5182C1.97016 40.6916 2.03555 40.8648 2.10375 41.037C2.13914 41.126 2.17641 41.2141 2.2125 41.3026C2.27238 41.4493 2.33227 41.5961 2.39449 41.7416C2.43563 41.838 2.4784 41.9334 2.52059 42.0293C2.58047 42.1657 2.64059 42.3021 2.70246 42.4376C2.71641 42.4683 2.72965 42.4997 2.74371 42.5302L2.76152 42.5638C3.20098 43.5128 3.68848 44.4353 4.22121 45.3277L4.23902 45.3613C4.26352 45.4021 4.28871 45.4424 4.3132 45.4832C4.33957 45.5268 4.36606 45.57 4.39254 45.6135C4.49977 45.7888 4.6084 45.9633 4.71914 46.1363C4.72488 46.1452 4.73039 46.1541 4.73613 46.163C4.85203 46.3434 4.97039 46.5223 5.09016 46.7002C5.11852 46.7423 5.14699 46.7844 5.17547 46.8263C5.295 47.002 5.4157 47.177 5.53875 47.3501C5.54016 47.3521 5.54145 47.3539 5.54285 47.3559C5.66754 47.5311 5.79469 47.7043 5.92289 47.8767C5.95313 47.9173 5.98359 47.9577 6.01383 47.9982C6.14309 48.17 6.27363 48.341 6.40641 48.5099C6.40676 48.5102 6.40723 48.5108 6.40746 48.5112C6.53988 48.6795 6.67441 48.8457 6.81024 49.0111C6.84211 49.0499 6.87387 49.0884 6.90598 49.1271C7.04285 49.2921 7.18078 49.4561 7.32129 49.6182C7.32668 49.6245 7.33219 49.6307 7.33758 49.6368C7.4734 49.7932 7.61098 49.9479 7.74973 50.1014C7.78313 50.1382 7.81652 50.175 7.84992 50.2118C7.99418 50.3696 8.13961 50.5264 8.28715 50.6813C8.29735 50.6919 8.30777 50.7025 8.31797 50.7132C8.45707 50.8588 8.59793 51.0027 8.73996 51.1455C8.77465 51.1803 8.8091 51.215 8.84402 51.2497C8.99508 51.4001 9.14742 51.5495 9.30188 51.6967C9.31688 51.711 9.33211 51.7253 9.34723 51.7395C9.48961 51.8748 9.63352 52.0086 9.77883 52.1412C9.81445 52.1739 9.85031 52.2067 9.88617 52.2391C10.044 52.3821 10.203 52.5237 10.3637 52.663C10.3832 52.6799 10.403 52.6964 10.4223 52.7133C10.5686 52.8394 10.7161 52.9639 10.8647 53.0873C10.9011 53.1176 10.9375 53.148 10.9741 53.178C11.1384 53.3132 11.304 53.447 11.4713 53.5786C11.4946 53.5971 11.5182 53.615 11.5417 53.6333C11.6917 53.7507 11.8431 53.8666 11.9953 53.9814C12.0323 54.0093 12.0693 54.0371 12.1065 54.0649C12.2771 54.1922 12.4489 54.3178 12.6224 54.4414C12.6492 54.4607 12.6764 54.4794 12.7032 54.4983C12.8576 54.6076 13.0129 54.7152 13.1693 54.8216C13.2066 54.8469 13.2436 54.8725 13.2811 54.8977C13.4576 55.0166 13.6355 55.134 13.8145 55.2491C13.8452 55.2688 13.8764 55.2882 13.9071 55.3079C14.065 55.4086 14.224 55.5079 14.3838 55.6057C14.4216 55.6289 14.4589 55.652 14.4967 55.675C14.6788 55.7854 14.8623 55.894 15.0469 56.0005C15.0809 56.0201 15.115 56.0393 15.1492 56.0586C15.3113 56.1514 15.4745 56.2426 15.6386 56.3327C15.6759 56.3532 15.7132 56.374 15.7507 56.3943C15.9383 56.4959 16.1269 56.5957 16.3168 56.6933C16.3541 56.7125 16.3916 56.7313 16.429 56.7502C16.5952 56.8349 16.7625 56.918 16.9304 56.9998C16.9676 57.0178 17.0045 57.036 17.0419 57.054C17.2345 57.1466 17.4284 57.2372 17.6232 57.3259C17.6633 57.3442 17.7038 57.3619 17.7439 57.38C17.915 57.4569 18.087 57.5323 18.2598 57.606C18.2957 57.6213 18.3314 57.6369 18.3674 57.6523C18.5648 57.7357 18.7635 57.8169 18.9632 57.896C19.0062 57.9132 19.0495 57.9299 19.0927 57.9469C19.2683 58.0157 19.4447 58.0829 19.622 58.1484C19.6568 58.1613 19.6913 58.1746 19.7261 58.1873C19.9282 58.2612 20.1314 58.3328 20.3357 58.4024C20.3811 58.4177 20.4267 58.4329 20.4723 58.4483C20.6535 58.5093 20.8354 58.5684 21.0181 58.6259C21.0506 58.6362 21.083 58.6467 21.1158 58.6569C21.3223 58.7209 21.5299 58.7827 21.7384 58.8425C21.7866 58.8562 21.8348 58.8698 21.8829 58.8833C22.0693 58.9357 22.256 58.9867 22.4439 59.0354C22.4742 59.0434 22.5046 59.0517 22.5349 59.0596C22.7456 59.1136 22.9573 59.1653 23.1697 59.2148C23.22 59.2266 23.2703 59.2379 23.3205 59.2494C23.5131 59.2934 23.7062 59.3358 23.9 59.376C23.927 59.3816 23.9539 59.3876 23.9809 59.3932C24.1957 59.4371 24.4117 59.4783 24.6281 59.5175C24.6799 59.5269 24.7318 59.5361 24.7838 59.5452C24.9836 59.5805 25.1841 59.614 25.3854 59.6453C25.4075 59.6487 25.4297 59.6525 25.4522 59.6559C25.6707 59.6893 25.8904 59.7196 26.1107 59.7483C26.1645 59.7553 26.2182 59.762 26.2722 59.7687C26.4802 59.7945 26.6885 59.8189 26.8977 59.8404C26.9142 59.8423 26.9305 59.8441 26.947 59.8459C27.1696 59.8685 27.3928 59.8877 27.6166 59.9055C27.6718 59.9099 27.727 59.914 27.782 59.9181C27.9993 59.9341 28.2171 59.9483 28.4358 59.9597C28.445 59.96 28.4543 59.9609 28.4637 59.9612C28.6897 59.9727 28.917 59.9808 29.1443 59.9871C29.2002 59.9886 29.2562 59.9902 29.3121 59.9914C29.5407 59.9965 29.77 60 29.9998 60C30.2297 60 30.4589 59.9965 30.6875 59.9914C30.7434 59.9902 30.7995 59.9888 30.8554 59.9871C30.9182 59.9852 30.9806 59.9821 31.0432 59.98C30.879 59.9745 30.7146 59.9693 30.5508 59.961Z" fill="#231F20"/>
</g>
<path d="M47.5732 12.4277C46.8788 11.7334 46.1435 11.0801 45.3716 10.4712H14.629C13.8571 11.0801 13.1216 11.7334 12.4272 12.4277H47.5732Z" fill="#D33F2F"/>
<path d="M12.2708 47.4119C12.9516 48.1051 13.6725 48.7583 14.4299 49.3685H45.5702C46.3275 48.7583 47.0485 48.1051 47.7295 47.4119H12.2708Z" fill="#D33F2F"/>
<path d="M53.4801 38.1769H20.0527C19.5125 38.1769 19.0745 38.6147 19.0745 39.1552C19.0745 39.6955 19.5125 40.1334 20.0527 40.1334H52.7024C52.9885 39.4949 53.2479 38.842 53.4801 38.1769Z" fill="#D33F2F"/>
<path d="M16.1647 38.1769H6.52002C6.75229 38.8423 7.0115 39.4949 7.29756 40.1334H16.1648C16.705 40.1334 17.1431 39.6956 17.1431 39.1552C17.1429 38.6147 16.7049 38.1769 16.1647 38.1769Z" fill="#D33F2F"/>
<path d="M41.2332 28.9417H5.1611C5.14634 29.2928 5.13696 29.6454 5.13696 30C5.13696 30.3009 5.14435 30.6 5.15501 30.8981H41.2333C41.7735 30.8981 42.2116 30.4603 42.2116 29.9198C42.2116 29.3794 41.7735 28.9417 41.2332 28.9417Z" fill="#D33F2F"/>
<path d="M43.678 29.9199C43.678 30.4603 44.1158 30.8982 44.6563 30.8982H54.8449C54.8556 30.6001 54.8629 30.3009 54.8629 30.0001C54.8629 29.6454 54.8537 29.2929 54.8388 28.9418H44.6563C44.116 28.9417 43.678 29.3795 43.678 29.9199Z" fill="#D33F2F"/>
<path d="M52.6301 19.7065H34.8472C34.3068 19.7065 33.8689 20.1443 33.8689 20.6848C33.8689 21.2251 34.3067 21.663 34.8472 21.663H53.4234C53.186 20.9974 52.9216 20.3447 52.6301 19.7065Z" fill="#D33F2F"/>
<path d="M31.3703 19.7065H7.37002C7.07857 20.3447 6.81408 20.9975 6.57666 21.663H31.3703C31.9106 21.663 32.3485 21.2252 32.3485 20.6848C32.3485 20.1443 31.9106 19.7065 31.3703 19.7065Z" fill="#D33F2F"/>
<path d="M37.812 25.51C37.812 26.6433 37.5627 27.6973 37.064 28.672C36.588 29.624 35.9307 30.4627 35.092 31.188C34.2533 31.8907 33.3013 32.4233 32.236 32.786L39.206 42.034L34.616 42L28.02 33.228H19.86V42H16.188V18.2H30.094C31.4993 18.2 32.78 18.5287 33.936 19.186C35.1147 19.8207 36.0553 20.6933 36.758 21.804C37.4607 22.892 37.812 24.1273 37.812 25.51ZM29.074 21.736H19.86V29.692H29.074C29.958 29.692 30.7627 29.4993 31.488 29.114C32.2133 28.7287 32.7913 28.2187 33.222 27.584C33.6753 26.9493 33.902 26.258 33.902 25.51C33.902 24.8073 33.6753 24.1727 33.222 23.606C32.7913 23.0393 32.2133 22.586 31.488 22.246C30.7627 21.906 29.958 21.736 29.074 21.736Z" fill="white"/>
<path d="M37.8508 18.2C39.2562 18.2 40.5368 18.5287 41.6928 19.186C42.8715 19.8207 43.8122 20.6933 44.5148 21.804C45.2175 22.892 45.5688 24.1273 45.5688 25.51C45.5688 26.938 45.1835 28.2413 44.4128 29.42C43.6422 30.576 42.6222 31.5053 41.3528 32.208C40.0835 32.888 38.6895 33.228 37.1708 33.228H27.6168V42H23.9448V18.2H37.8508ZM36.8308 29.692C37.7148 29.692 38.5195 29.4993 39.2448 29.114C39.9702 28.7287 40.5482 28.2187 40.9788 27.584C41.4322 26.9493 41.6588 26.258 41.6588 25.51C41.6588 24.8073 41.4322 24.1727 40.9788 23.606C40.5482 23.0393 39.9702 22.586 39.2448 22.246C38.5195 21.906 37.7148 21.736 36.8308 21.736H27.6168V29.692H36.8308Z" fill="white"/>
</svg>
