<?xml version="1.0" encoding="iso-8859-1"?>
<!-- Generator: Adobe Illustrator 19.0.0, SVG Export Plug-In . SVG Version: 6.00 Build 0)  -->
<svg version="1.1" id="Layer_1" xmlns="http://www.w3.org/2000/svg" xmlns:xlink="http://www.w3.org/1999/xlink" x="0px" y="0px"
	 viewBox="0 0 512 512" style="enable-background:new 0 0 512 512;" xml:space="preserve">
<path style="fill:#FF4D30;" d="M331.635,289.501c0.401-1.11,0.776-2.231,1.129-3.363c0.081-0.255,0.147-0.517,0.225-0.773
	c0.287-0.948,0.561-1.902,0.814-2.865c0.113-0.437,0.214-0.88,0.322-1.32c0.194-0.795,0.383-1.592,0.554-2.396
	c0.104-0.488,0.197-0.98,0.292-1.472c0.149-0.772,0.289-1.548,0.415-2.329c0.083-0.505,0.161-1.011,0.234-1.517
	c0.113-0.794,0.213-1.591,0.304-2.391c0.056-0.493,0.115-0.983,0.161-1.478c0.083-0.874,0.145-1.754,0.201-2.636
	c0.026-0.423,0.063-0.844,0.083-1.27c0.062-1.308,0.1-2.623,0.1-3.946c0-2.821-0.143-5.609-0.422-8.357
	c-4.186-41.218-38.996-73.382-81.319-73.382h-0.001l0,0c-42.321,0-77.131,32.164-81.317,73.382
	c-0.279,2.748-0.423,5.537-0.423,8.357c0,1.323,0.037,2.638,0.1,3.946c0.021,0.425,0.057,0.846,0.083,1.27
	c0.056,0.882,0.117,1.763,0.202,2.636c0.047,0.495,0.106,0.986,0.161,1.478c0.09,0.8,0.19,1.598,0.303,2.391
	c0.073,0.507,0.152,1.013,0.233,1.517c0.128,0.781,0.267,1.556,0.416,2.329c0.095,0.492,0.189,0.983,0.293,1.472
	c0.17,0.805,0.359,1.601,0.553,2.396c0.108,0.44,0.207,0.883,0.323,1.32c0.251,0.963,0.528,1.916,0.813,2.865
	c0.076,0.256,0.145,0.518,0.223,0.773c0.353,1.132,0.73,2.253,1.13,3.363l0.021,0.037c3.06,8.461,7.485,16.263,12.995,23.162
	l0.06,0.107c0.171,0.214,0.349,0.422,0.522,0.634c0.154,0.188,0.307,0.375,0.462,0.561c0.711,0.855,1.437,1.695,2.181,2.518
	c0.145,0.16,0.292,0.316,0.436,0.475c0.783,0.851,1.576,1.692,2.393,2.509c0.053,0.053,0.108,0.104,0.159,0.157
	c0.796,0.793,1.612,1.565,2.439,2.325c0.142,0.13,0.282,0.262,0.425,0.391c0.831,0.751,1.679,1.484,2.54,2.201
	c0.182,0.152,0.364,0.302,0.547,0.451c0.864,0.709,1.744,1.401,2.638,2.073c0.164,0.123,0.329,0.243,0.494,0.364
	c0.939,0.697,1.89,1.379,2.861,2.034c0.044,0.029,0.089,0.058,0.133,0.088c0.954,0.641,1.923,1.259,2.903,1.861
	c0.16,0.098,0.317,0.198,0.477,0.295c0.97,0.586,1.956,1.15,2.952,1.697c0.201,0.11,0.4,0.219,0.602,0.327
	c1,0.539,2.011,1.059,3.036,1.556c0.174,0.085,0.351,0.166,0.527,0.25c1.076,0.513,2.163,1.009,3.265,1.476
	c0.028,0.012,0.06,0.023,0.088,0.036c1.092,0.46,2.199,0.892,3.313,1.306c0.17,0.063,0.339,0.129,0.509,0.191
	c1.088,0.395,2.187,0.765,3.294,1.114c0.214,0.068,0.43,0.135,0.644,0.201c1.112,0.341,2.232,0.661,3.362,0.955
	c0.181,0.047,0.365,0.09,0.547,0.136c1.189,0.301,2.385,0.582,3.594,0.83c0.016,0.003,0.032,0.005,0.047,0.009
	c1.202,0.245,2.417,0.458,3.637,0.65c0.182,0.028,0.364,0.06,0.546,0.088c1.176,0.178,2.362,0.325,3.556,0.452
	c0.227,0.024,0.452,0.047,0.68,0.07c1.197,0.116,2.399,0.209,3.612,0.275c0.188,0.01,0.375,0.015,0.563,0.024
	c1.274,0.059,2.555,0.097,3.843,0.097c0.001,0,0.002,0,0.002,0l0,0h0.001c0.001,0,0.001,0,0.001,0c1.291,0,2.569-0.038,3.845-0.097
	c0.188-0.009,0.375-0.014,0.561-0.024c1.211-0.065,2.416-0.159,3.613-0.275c0.226-0.023,0.452-0.046,0.679-0.07
	c1.193-0.126,2.379-0.275,3.556-0.452c0.183-0.027,0.364-0.059,0.546-0.088c1.221-0.192,2.434-0.404,3.638-0.65
	c0.015-0.003,0.029-0.005,0.045-0.009c1.209-0.249,2.406-0.529,3.595-0.83c0.182-0.046,0.365-0.089,0.548-0.136
	c1.13-0.294,2.25-0.614,3.361-0.955c0.215-0.065,0.43-0.133,0.644-0.201c1.109-0.35,2.208-0.719,3.294-1.114
	c0.17-0.062,0.339-0.128,0.508-0.191c1.116-0.414,2.222-0.846,3.313-1.306c0.029-0.013,0.06-0.024,0.089-0.036
	c1.103-0.467,2.189-0.964,3.266-1.476c0.174-0.083,0.351-0.165,0.525-0.25c1.024-0.497,2.035-1.017,3.036-1.556
	c0.202-0.108,0.401-0.217,0.602-0.327c0.996-0.546,1.982-1.111,2.952-1.697c0.16-0.096,0.316-0.196,0.475-0.293
	c0.981-0.603,1.951-1.221,2.904-1.862c0.045-0.029,0.089-0.058,0.134-0.088c0.97-0.656,1.921-1.339,2.862-2.034
	c0.164-0.121,0.33-0.241,0.493-0.364c0.894-0.673,1.773-1.366,2.638-2.073c0.183-0.149,0.365-0.3,0.547-0.451
	c0.861-0.717,1.709-1.45,2.541-2.201c0.143-0.13,0.281-0.262,0.424-0.391c0.829-0.761,1.644-1.534,2.441-2.327
	c0.052-0.051,0.106-0.101,0.157-0.153c0.818-0.819,1.611-1.659,2.393-2.511c0.146-0.159,0.293-0.315,0.436-0.475
	c0.746-0.824,1.472-1.665,2.182-2.518c0.155-0.186,0.309-0.374,0.462-0.561c0.173-0.213,0.351-0.421,0.523-0.634l0.061-0.107
	c5.51-6.899,9.934-14.702,12.994-23.162L331.635,289.501z"/>
<g>
	<path style="fill:#CAE9F7;" d="M428.844,512c-23.488,0.002-51.453-6.643-82.784-19.935
		c-60.454-25.649-127.154-73.18-187.812-133.838C97.589,297.567,50.057,230.868,24.408,170.413
		C-2.229,107.629-2.171,58.325,24.57,31.584c17.827-17.828,46.203-23.945,82.06-17.693c4.448,0.776,7.425,5.011,6.65,9.459
		c-0.776,4.449-5.01,7.424-9.46,6.65c-21.186-3.697-50.128-4.414-67.689,13.146c-21.397,21.398-20.184,65.457,3.33,120.88
		c24.847,58.567,71.14,123.429,130.347,182.638c59.208,59.208,124.071,105.5,182.637,130.347
		c55.422,23.514,99.482,24.728,120.881,3.328c21.397-21.398,20.184-65.457-3.33-120.878
		c-24.847-58.567-71.14-123.429-130.347-182.638c-60.841-60.841-127.21-107.761-186.883-132.114
		c-4.181-1.706-6.187-6.479-4.48-10.659c1.706-4.181,6.479-6.188,10.659-4.48c61.641,25.158,129.922,73.347,192.265,135.692
		c60.659,60.658,108.19,127.358,133.839,187.813c26.637,62.784,26.58,112.088-0.161,138.829C471.491,505.3,452.424,512,428.844,512z
		"/>
	<path style="fill:#CAE9F7;" d="M80.613,512c-23.585,0.001-42.646-6.699-56.045-20.098c-26.74-26.741-26.798-76.044-0.161-138.829
		c25.649-60.454,73.181-127.154,133.839-187.813c60.659-60.658,127.358-108.19,187.813-133.839
		c62.783-26.637,112.088-26.579,138.829,0.162c22.349,22.35,26.184,60.085,11.089,109.128c-1.329,4.317-5.904,6.736-10.219,5.409
		c-4.316-1.329-6.738-5.903-5.409-10.219c13.011-42.274,10.518-75.216-7.023-92.755c-21.398-21.398-65.457-20.186-120.88,3.328
		c-58.567,24.847-123.428,71.14-182.637,130.348s-105.5,124.07-130.347,182.638c-23.513,55.422-24.728,99.48-3.33,120.878
		c21.399,21.398,65.458,20.186,120.88-3.328c58.567-24.847,123.428-71.139,182.638-130.347
		c50.45-50.449,92.758-106.785,119.13-158.627c2.047-4.025,6.97-5.627,10.994-3.581c4.025,2.047,5.627,6.97,3.58,10.994
		c-27.524,54.108-69.76,110.395-122.143,162.776c-60.658,60.658-127.358,108.19-187.812,133.838
		C132.071,505.356,104.099,512,80.613,512z"/>
</g>
<g>
	<path style="fill:#90C8EC;" d="M132.137,0c-16.171,0-29.327,13.157-29.327,29.328c0,16.172,13.156,29.329,29.327,29.329
		c16.172,0,29.329-13.157,29.329-29.329C161.466,13.157,148.31,0,132.137,0z"/>
	<path style="fill:#90C8EC;" d="M478.199,136.452c-16.171,0-29.328,13.157-29.328,29.328c0,16.172,13.157,29.329,29.328,29.329
		c16.172,0,29.329-13.157,29.329-29.329C507.528,149.609,494.372,136.452,478.199,136.452z"/>
</g>
<g>
	<path style="opacity:0.1;fill:#231F20;enable-background:new    ;" d="M260.644,342.567c-0.183-0.027-0.364-0.059-0.546-0.088
		c-1.221-0.192-2.434-0.404-3.638-0.65c-0.015-0.003-0.029-0.005-0.045-0.009c-1.209-0.249-2.406-0.529-3.595-0.83
		c-0.182-0.046-0.365-0.089-0.548-0.136c-1.13-0.294-2.25-0.614-3.361-0.955c-0.215-0.065-0.428-0.133-0.644-0.201
		c-1.109-0.35-2.208-0.719-3.293-1.114c-0.171-0.062-0.34-0.128-0.51-0.191c-1.114-0.414-2.221-0.846-3.312-1.306
		c-0.029-0.013-0.06-0.024-0.089-0.036c-1.103-0.467-2.189-0.964-3.266-1.476c-0.174-0.083-0.351-0.165-0.525-0.25
		c-1.024-0.497-2.035-1.017-3.036-1.556c-0.202-0.108-0.401-0.217-0.602-0.327c-0.996-0.546-1.981-1.111-2.952-1.697
		c-0.16-0.097-0.317-0.197-0.477-0.295c-0.98-0.602-1.95-1.22-2.902-1.861c-0.045-0.029-0.089-0.058-0.134-0.088
		c-0.97-0.656-1.921-1.339-2.862-2.034c-0.164-0.121-0.33-0.241-0.493-0.364c-0.894-0.673-1.773-1.366-2.638-2.073
		c-0.183-0.149-0.365-0.3-0.547-0.451c-0.861-0.717-1.709-1.45-2.541-2.201c-0.143-0.13-0.281-0.262-0.424-0.391
		c-0.828-0.76-1.643-1.533-2.438-2.325c-0.053-0.053-0.109-0.104-0.161-0.157c-0.816-0.818-1.61-1.658-2.392-2.509
		c-0.146-0.159-0.293-0.315-0.436-0.475c-0.746-0.824-1.472-1.665-2.182-2.518c-0.156-0.186-0.309-0.374-0.462-0.561
		c-0.173-0.213-0.351-0.421-0.523-0.634l-0.061-0.107c-5.51-6.899-9.934-14.702-12.994-23.162l-0.02-0.037
		c-0.401-1.11-0.776-2.231-1.129-3.363c-0.081-0.255-0.147-0.517-0.225-0.773c-0.287-0.948-0.561-1.902-0.814-2.865
		c-0.113-0.437-0.214-0.88-0.322-1.32c-0.194-0.795-0.383-1.592-0.554-2.396c-0.104-0.488-0.197-0.98-0.292-1.472
		c-0.149-0.772-0.289-1.548-0.415-2.329c-0.083-0.505-0.161-1.011-0.234-1.517c-0.113-0.794-0.213-1.591-0.304-2.391
		c-0.056-0.493-0.114-0.983-0.161-1.478c-0.083-0.874-0.145-1.754-0.201-2.636c-0.026-0.423-0.063-0.844-0.083-1.27
		c-0.062-1.308-0.1-2.623-0.1-3.946c0-2.821,0.143-5.609,0.422-8.357c3.883-38.226,34.109-68.645,72.234-72.862
		c-2.985-0.33-6.012-0.52-9.084-0.52h-0.001l0,0c-42.321,0-77.131,32.164-81.317,73.382c-0.279,2.748-0.423,5.537-0.423,8.357
		c0,1.323,0.037,2.638,0.1,3.946c0.021,0.425,0.057,0.846,0.083,1.27c0.056,0.882,0.117,1.763,0.202,2.636
		c0.047,0.495,0.106,0.986,0.161,1.478c0.09,0.8,0.19,1.598,0.303,2.391c0.073,0.507,0.152,1.013,0.233,1.517
		c0.128,0.781,0.267,1.556,0.416,2.329c0.095,0.492,0.189,0.983,0.293,1.472c0.17,0.805,0.359,1.601,0.553,2.396
		c0.108,0.44,0.207,0.883,0.323,1.32c0.251,0.963,0.528,1.916,0.813,2.865c0.076,0.256,0.145,0.518,0.223,0.773
		c0.353,1.132,0.73,2.253,1.13,3.363l0.021,0.037c3.06,8.461,7.485,16.263,12.995,23.162l0.06,0.107
		c0.171,0.214,0.349,0.422,0.522,0.634c0.154,0.188,0.307,0.375,0.462,0.561c0.711,0.855,1.437,1.695,2.181,2.518
		c0.145,0.16,0.292,0.316,0.436,0.475c0.783,0.851,1.576,1.692,2.393,2.509c0.053,0.053,0.108,0.104,0.159,0.157
		c0.796,0.793,1.612,1.565,2.439,2.325c0.142,0.13,0.282,0.262,0.425,0.391c0.831,0.751,1.679,1.484,2.54,2.201
		c0.182,0.152,0.364,0.302,0.547,0.451c0.864,0.709,1.744,1.401,2.638,2.073c0.164,0.123,0.329,0.243,0.494,0.364
		c0.939,0.697,1.89,1.379,2.861,2.034c0.044,0.029,0.089,0.058,0.133,0.088c0.954,0.641,1.923,1.259,2.903,1.861
		c0.16,0.098,0.317,0.198,0.477,0.295c0.97,0.586,1.956,1.15,2.952,1.697c0.201,0.11,0.4,0.219,0.602,0.327
		c1,0.539,2.011,1.059,3.036,1.556c0.174,0.085,0.351,0.166,0.527,0.25c1.076,0.513,2.163,1.009,3.265,1.476
		c0.028,0.012,0.06,0.023,0.088,0.036c1.092,0.46,2.199,0.892,3.313,1.306c0.17,0.063,0.339,0.129,0.509,0.191
		c1.088,0.395,2.187,0.765,3.294,1.114c0.214,0.068,0.43,0.135,0.644,0.201c1.112,0.341,2.232,0.661,3.362,0.955
		c0.181,0.047,0.365,0.09,0.547,0.136c1.189,0.301,2.385,0.582,3.594,0.83c0.016,0.003,0.032,0.005,0.047,0.009
		c1.202,0.245,2.417,0.458,3.637,0.65c0.182,0.028,0.364,0.06,0.546,0.088c1.176,0.178,2.362,0.325,3.556,0.452
		c0.227,0.024,0.452,0.047,0.68,0.07c1.197,0.116,2.399,0.209,3.612,0.275c0.188,0.01,0.375,0.015,0.563,0.024
		c1.274,0.059,2.555,0.097,3.843,0.097c0.001,0,0.002,0,0.002,0l0,0h0.001c0.001,0,0.001,0,0.001,0c1.291,0,2.569-0.038,3.845-0.097
		c0.188-0.009,0.375-0.014,0.561-0.024c1.211-0.065,2.416-0.159,3.613-0.275c0.226-0.023,0.452-0.046,0.679-0.07
		c0.129-0.014,0.255-0.035,0.385-0.049C262.751,342.853,261.693,342.725,260.644,342.567z"/>
	<path style="opacity:0.1;fill:#231F20;enable-background:new    ;" d="M120.98,29.328c0-13.001,8.506-24.047,20.243-27.881
		C138.36,0.512,135.308,0,132.137,0c-16.171,0-29.327,13.157-29.327,29.328c0,16.172,13.156,29.329,29.327,29.329
		c3.17,0,6.222-0.512,9.085-1.448C129.485,53.376,120.98,42.33,120.98,29.328z"/>
	<path style="opacity:0.1;fill:#231F20;enable-background:new    ;" d="M467.041,165.78c0-13.001,8.506-24.047,20.244-27.881
		c-2.863-0.935-5.915-1.448-9.085-1.448c-16.171,0-29.328,13.157-29.328,29.328c0,16.172,13.157,29.329,29.328,29.329
		c3.17,0,6.222-0.512,9.085-1.448C475.547,189.828,467.041,178.782,467.041,165.78z"/>
</g>
<g>
</g>
<g>
</g>
<g>
</g>
<g>
</g>
<g>
</g>
<g>
</g>
<g>
</g>
<g>
</g>
<g>
</g>
<g>
</g>
<g>
</g>
<g>
</g>
<g>
</g>
<g>
</g>
<g>
</g>
</svg>
